<?xml version="1.0" standalone="yes"?><!DOCTYPE svg PUBLIC "-//W3C//DTD SVG 1.1//EN" "http://www.w3.org/Graphics/SVG/1.1/DTD/svg11.dtd"><svg width="1065px" height="529px" xmlns="http://www.w3.org/2000/svg" version="1.1"><path d="M-124.70765814495915,-216 L-36,-104M-36,-104 L-40,-209M-40,-209 L0,-288M0,-288 L0,-288M0,-288 L40,-209M40,-209 L36,-104M36,-104 L124.70765814495915,-216M124.70765814495915,-216 L124.70765814495914,-216M124.70765814495914,-216 L72.06664199358161,-83.1769145362398M72.06664199358161,-83.1769145362398 L160.99930939094767,-139.14101615137758M160.99930939094767,-139.14101615137758 L249.4153162899183,-144.00000000000003M249.4153162899183,-144.00000000000003 L249.4153162899183,-144.00000000000003M249.4153162899183,-144.00000000000003 L200.99930939094767,-69.85898384862249M200.99930939094767,-69.85898384862249 L108.06664199358161,-20.823085463760226M108.06664199358161,-20.823085463760226 L249.4153162899183,-4.263256414560601e-14M249.4153162899183,-4.263256414560601e-14 L249.4153162899183,-4.263256414560601e-14M249.4153162899183,-4.263256414560601e-14 L108.06664199358161,20.823085463760187M108.06664199358161,20.823085463760187 L200.9993093909477,69.85898384862242M200.9993093909477,69.85898384862242 L249.41531628991834,143.99999999999994M249.41531628991834,143.99999999999994 L249.41531628991834,143.99999999999994M249.41531628991834,143.99999999999994 L160.9993093909477,139.1410161513775M160.9993093909477,139.1410161513775 L72.06664199358164,83.17691453623976M72.06664199358164,83.17691453623976 L124.7076581449592,215.99999999999994M124.7076581449592,215.99999999999994 L124.70765814495918,215.99999999999997M124.70765814495918,215.99999999999997 L36.000000000000014,104M36.000000000000014,104 L40.00000000000003,209M40.00000000000003,209 L3.5268662990084465e-14,288M3.5268662990084465e-14,288 L3.5268662990084465e-14,288M3.5268662990084465e-14,288 L-39.99999999999997,209M-39.99999999999997,209 L-35.999999999999986,104M-35.999999999999986,104 L-124.70765814495913,216.00000000000003M-124.70765814495913,216.00000000000003 L-124.70765814495905,216.00000000000006M-124.70765814495905,216.00000000000006 L-72.06664199358157,83.17691453623982M-72.06664199358157,83.17691453623982 L-160.9993093909476,139.14101615137764M-160.9993093909476,139.14101615137764 L-249.41531628991825,144.0000000000001M-249.41531628991825,144.0000000000001 L-249.41531628991825,144.0000000000001M-249.41531628991825,144.0000000000001 L-200.99930939094764,69.85898384862256M-200.99930939094764,69.85898384862256 L-108.0666419935816,20.82308546376026M-108.0666419935816,20.82308546376026 L-249.41531628991834,1.4210854715202004e-13M-249.41531628991834,1.4210854715202004e-13 L-249.4153162899183,-4.263256414560601e-14M-249.4153162899183,-4.263256414560601e-14 L-108.06664199358161,-20.823085463760226M-108.06664199358161,-20.823085463760226 L-200.99930939094767,-69.85898384862249M-200.99930939094767,-69.85898384862249 L-249.4153162899183,-144.00000000000003M-249.4153162899183,-144.00000000000003 L-249.4153162899183,-144.00000000000003M-249.4153162899183,-144.00000000000003 L-160.99930939094767,-139.14101615137758M-160.99930939094767,-139.14101615137758 L-72.06664199358161,-83.1769145362398M-72.06664199358161,-83.1769145362398 L-124.70765814495914,-216M-124.70765814495914,-216 L-124.70765814495915,-216" stroke="#000" fill="#000" /></svg>